<svg width="27" height="32" viewBox="0 0 27 32" fill="none" xmlns="http://www.w3.org/2000/svg">
<path d="M3.665 6.01453L3.66445 6.01453C2.9627 6.01602 2.29003 6.29506 1.79329 6.79075C1.29654 7.28643 1.01606 7.9585 1.01307 8.66025H1.01307V8.66134V28.9553C1.01306 29.659 1.29222 30.334 1.78929 30.8321C2.28636 31.3302 2.96074 31.6108 3.66445 31.6123H3.665H18.1277C18.8324 31.6123 19.5083 31.3324 20.0066 30.8341C20.5049 30.3358 20.7848 29.66 20.7848 28.9553L20.7848 8.66134L20.7848 8.66025C20.7818 7.95752 20.5005 7.2846 20.0026 6.78875C19.5046 6.29291 18.8305 6.01452 18.1277 6.01453L3.665 6.01453ZM19.2489 28.9646C19.2465 29.2601 19.1274 29.5428 18.9176 29.751C18.7076 29.9595 18.4237 30.0765 18.1278 30.0764L3.66595 30.0764C3.66579 30.0764 3.66562 30.0764 3.66546 30.0764C3.369 30.0752 3.08509 29.9566 2.87584 29.7466C2.66648 29.5364 2.54893 29.2519 2.54893 28.9553V8.66234C2.55136 8.36748 2.66985 8.08543 2.87876 7.87729C3.08778 7.66906 3.37045 7.55161 3.66548 7.5504H18.1277C18.4251 7.5504 18.7103 7.66852 18.9205 7.87878C19.1308 8.08905 19.2489 8.37422 19.2489 8.67158V28.9646Z" fill="white" stroke="white" stroke-width="0.511956"/>
<path d="M6.63514 2.98263V2.98319V4.80063C6.63514 5.0043 6.71604 5.19963 6.86006 5.34365C7.00407 5.48766 7.1994 5.56857 7.40307 5.56857C7.60674 5.56857 7.80206 5.48766 7.94608 5.34365C8.09009 5.19963 8.171 5.0043 8.171 4.80063V2.98372C8.17222 2.70218 8.28488 2.43258 8.48435 2.23388C8.68393 2.03507 8.95416 1.92344 9.23587 1.92344H23.8158C24.096 1.92466 24.3643 2.03678 24.5621 2.23529C24.7599 2.43391 24.871 2.70284 24.871 2.98319V23.3938C24.8686 23.673 24.7566 23.9402 24.5591 24.1376C24.3617 24.3351 24.0946 24.4471 23.8153 24.4495H22.1576C21.954 24.4495 21.7586 24.5304 21.6146 24.6744C21.4706 24.8184 21.3897 25.0138 21.3897 25.2174C21.3897 25.4211 21.4706 25.6164 21.6146 25.7604C21.7586 25.9045 21.954 25.9854 22.1576 25.9854H23.8164H23.8169C24.5057 25.9839 25.1658 25.7092 25.6523 25.2216C26.1388 24.734 26.412 24.0734 26.412 23.3846V2.98319C26.412 2.29479 26.1385 1.63459 25.6517 1.14781C25.165 0.661043 24.5048 0.387577 23.8164 0.387577H9.23587C8.5471 0.387575 7.88645 0.660801 7.39888 1.14731C6.91131 1.63381 6.63664 2.29386 6.63514 2.98263Z" fill="white" stroke="white" stroke-width="0.511956"/>
</svg>
