<svg width="36" height="29" viewBox="0 0 36 29" fill="none" xmlns="http://www.w3.org/2000/svg">
<path d="M29.338 4.52015L30.1841 3.90572H29.1384H6.9237H5.87804L6.72414 4.52015L17.8315 12.5862L18.0311 12.7311L18.2306 12.5862L29.338 4.52015ZM4.19281 6.09313L3.6537 5.70184V6.36799V22.9246C3.6537 23.4687 3.87715 23.9882 4.27108 24.3694C4.66464 24.7503 5.19611 24.9623 5.74804 24.9623H30.3141C30.866 24.9623 31.3975 24.7503 31.791 24.3694C32.185 23.9882 32.4084 23.4687 32.4084 22.9246V6.36799V5.70184L31.8693 6.09313L18.8844 15.5177C18.6394 15.6955 18.34 15.7925 18.0311 15.7925C17.7222 15.7925 17.4227 15.6955 17.1777 15.5177L4.19281 6.09313ZM5.74804 1.18874H30.3141C31.6237 1.18874 32.8775 1.6923 33.8002 2.58527C34.7226 3.47788 35.2386 4.68609 35.2386 5.94346V22.9246C35.2386 24.182 34.7226 25.3902 33.8002 26.2828C32.8775 27.1758 31.6237 27.6793 30.3141 27.6793H5.74804C4.43844 27.6793 3.18464 27.1758 2.2619 26.2828C1.33954 25.3902 0.823509 24.182 0.823509 22.9246V5.94346C0.823509 4.68609 1.33954 3.47788 2.2619 2.58527C3.18464 1.6923 4.43844 1.18874 5.74804 1.18874Z" fill="white" stroke="#51515B" stroke-width="0.679245"/>
</svg>
