<svg width="14" height="15" viewBox="0 0 14 15" fill="none" xmlns="http://www.w3.org/2000/svg">
<path d="M12.9648 9.84724e-05H1.03521C0.901112 -0.00176394 0.767958 0.022808 0.643356 0.072411C0.518754 0.122014 0.405143 0.195676 0.309012 0.289191C0.212881 0.382706 0.136114 0.494242 0.0830929 0.617429C0.0300721 0.740616 0.0018369 0.873041 0 1.00714V13.0776C0.0018369 13.2117 0.0300721 13.3441 0.0830929 13.4673C0.136114 13.5905 0.212881 13.702 0.309012 13.7955C0.405143 13.889 0.518754 13.9627 0.643356 14.0123C0.767958 14.0619 0.901112 14.0865 1.03521 14.0846H12.9648C13.0989 14.0865 13.232 14.0619 13.3566 14.0123C13.4812 13.9627 13.5949 13.889 13.691 13.7955C13.7871 13.702 13.8639 13.5905 13.9169 13.4673C13.9699 13.3441 13.9982 13.2117 14 13.0776V1.00714C13.9982 0.873041 13.9699 0.740616 13.9169 0.617429C13.8639 0.494242 13.7871 0.382706 13.691 0.289191C13.5949 0.195676 13.4812 0.122014 13.3566 0.072411C13.232 0.022808 13.0989 -0.00176394 12.9648 9.84724e-05ZM4.24648 11.7888H2.1338V5.4508H4.24648V11.7888ZM3.19014 4.56348C2.89878 4.56348 2.61934 4.44773 2.41332 4.24171C2.20729 4.03568 2.09155 3.75625 2.09155 3.46489C2.09155 3.17352 2.20729 2.89409 2.41332 2.68807C2.61934 2.48204 2.89878 2.3663 3.19014 2.3663C3.34486 2.34875 3.50153 2.36408 3.64991 2.41128C3.79829 2.45849 3.93503 2.5365 4.05117 2.64021C4.16731 2.74392 4.26023 2.871 4.32385 3.01311C4.38748 3.15523 4.42036 3.30918 4.42036 3.46489C4.42036 3.62059 4.38748 3.77454 4.32385 3.91666C4.26023 4.05877 4.16731 4.18585 4.05117 4.28956C3.93503 4.39327 3.79829 4.47129 3.64991 4.51849C3.50153 4.56569 3.34486 4.58102 3.19014 4.56348ZM11.8662 11.7888H9.75352V8.38742C9.75352 7.53531 9.4507 6.97897 8.6831 6.97897C8.44554 6.98071 8.21422 7.05522 8.02031 7.19247C7.8264 7.32972 7.67921 7.52311 7.59859 7.74658C7.54348 7.9121 7.5196 8.08642 7.52817 8.26066V11.7818H5.41549C5.41549 11.7818 5.41549 6.02122 5.41549 5.44376H7.52817V6.33813C7.72009 6.0051 7.99923 5.73075 8.33552 5.54461C8.67181 5.35847 9.05251 5.2676 9.43662 5.28179C10.8451 5.28179 11.8662 6.19024 11.8662 8.14094V11.7888Z" fill="#3354FF"/>
</svg>
