<svg width="38" height="19" viewBox="0 0 38 19" fill="none" xmlns="http://www.w3.org/2000/svg">
<path d="M0.373127 3.30637C-0.787685 1.78726 0.900575 0 3.49615 0H7.24242C7.9037 0 8.50819 0.244447 8.80388 0.631406L22.2878 18.2773H13.971C12.6484 18.2773 11.4394 17.7884 10.8479 17.0144L0.373127 3.30637Z" fill="#7B6AFC"/>
<path d="M37.6313 2.767C37.8737 2.44977 38 2.10004 38 1.74529V1.14233C38 0.511483 37.2183 0 36.2542 0H31.429C28.8334 0 27.1451 1.78726 28.3059 3.30637L32.7626 9.13865L37.6313 2.767Z" fill="#7B6AFC"/>
<path d="M14.3395 3.30637C13.1787 1.78726 14.867 0 17.4626 0H21.2088C21.8701 0 22.4746 0.244447 22.7703 0.631406L31.0168 11.4233L26.0548 17.9168C25.5342 17.6987 25.1015 17.3902 24.8143 17.0144L14.3395 3.30637Z" fill="#7B6AFC"/>
</svg>
