<svg width="37" height="37" viewBox="0 0 37 37" fill="none" xmlns="http://www.w3.org/2000/svg">
<mask id="path-1-inside-1_1811_2364" fill="white">
<path d="M36.6047 13.9875C36.6029 12.4743 36.0009 11.0235 34.9309 9.95349C33.8608 8.88345 32.4101 8.2815 30.8968 8.27967C30.0487 8.28423 29.2126 8.47992 28.4506 8.85221V5.83344C28.4523 4.69874 28.1153 3.58935 27.4827 2.64736C26.8501 1.70536 25.9506 0.973656 24.8996 0.545947C23.8486 0.118237 22.6939 0.0139982 21.5833 0.246581C20.4726 0.479163 19.4567 1.03798 18.6657 1.85146C17.7269 0.875165 16.4705 0.266023 15.1225 0.13367C13.7746 0.0013172 12.4237 0.354445 11.313 1.12949C10.2022 1.90454 9.40461 3.05061 9.06369 4.36141C8.72276 5.67222 8.86092 7.06167 9.45328 8.27967H6.43452C5.29981 8.27794 4.19042 8.61496 3.24843 9.24758C2.30644 9.8802 1.57473 10.7796 1.14702 11.8306C0.719311 12.8816 0.615072 14.0364 0.847655 15.147C1.08024 16.2576 1.63905 17.2735 2.45253 18.0646C1.47624 19.0034 0.867098 20.2598 0.734745 21.6077C0.602391 22.9557 0.955519 24.3066 1.73057 25.4173C2.50562 26.528 3.65168 27.3256 4.96249 27.6666C6.27329 28.0075 7.66274 27.8693 8.88075 27.277V30.2957C8.87901 31.4304 9.21604 32.5398 9.84865 33.4818C10.4813 34.4238 11.3807 35.1555 12.4317 35.5832C13.4827 36.0109 14.6375 36.1152 15.7481 35.8826C16.8587 35.65 17.8746 35.0912 18.6657 34.2777C19.6044 35.254 20.8609 35.8632 22.2088 35.9955C23.5567 36.1279 24.9076 35.7747 26.0184 34.9997C27.1291 34.2246 27.9267 33.0786 28.2676 31.7678C28.6086 30.457 28.4704 29.0675 27.878 27.8495H30.8968C32.0315 27.8512 33.1409 27.5142 34.0829 26.8816C35.0249 26.249 35.7566 25.3496 36.1843 24.2986C36.612 23.2476 36.7163 22.0928 36.4837 20.9822C36.2511 19.8716 35.6923 18.8557 34.8788 18.0646C35.4246 17.535 35.8585 16.9013 36.155 16.201C36.4514 15.5007 36.6044 14.748 36.6047 13.9875ZM20.2965 5.83344C20.2965 5.18466 20.5542 4.56246 21.013 4.1037C21.4717 3.64494 22.0939 3.38721 22.7427 3.38721C23.3915 3.38721 24.0137 3.64494 24.4725 4.1037C24.9312 4.56246 25.1889 5.18466 25.1889 5.83344V13.9875C25.1889 14.6363 24.9312 15.2585 24.4725 15.7173C24.0137 16.176 23.3915 16.4338 22.7427 16.4338C22.0939 16.4338 21.4717 16.176 21.013 15.7173C20.5542 15.2585 20.2965 14.6363 20.2965 13.9875V5.83344ZM8.88075 22.1416C8.88075 22.6255 8.73728 23.0984 8.46848 23.5007C8.19969 23.903 7.81764 24.2165 7.37065 24.4017C6.92366 24.5868 6.4318 24.6353 5.95728 24.5409C5.48276 24.4465 5.04688 24.2135 4.70477 23.8714C4.36266 23.5293 4.12968 23.0934 4.03529 22.6189C3.9409 22.1444 3.98935 21.6525 4.1745 21.2055C4.35965 20.7585 4.67318 20.3765 5.07547 20.1077C5.47775 19.8389 5.9507 19.6954 6.43452 19.6954H8.88075V22.1416ZM17.0348 30.2957C17.0348 30.9445 16.7771 31.5667 16.3184 32.0255C15.8596 32.4842 15.2374 32.742 14.5886 32.742C13.9398 32.742 13.3176 32.4842 12.8589 32.0255C12.4001 31.5667 12.1424 30.9445 12.1424 30.2957V22.1416C12.1424 21.4929 12.4001 20.8707 12.8589 20.4119C13.3176 19.9531 13.9398 19.6954 14.5886 19.6954C15.2374 19.6954 15.8596 19.9531 16.3184 20.4119C16.7771 20.8707 17.0348 21.4929 17.0348 22.1416V30.2957ZM14.5886 16.4338H6.43452C5.78574 16.4338 5.16353 16.176 4.70477 15.7173C4.24602 15.2585 3.98829 14.6363 3.98829 13.9875C3.98829 13.3388 4.24602 12.7166 4.70477 12.2578C5.16353 11.799 5.78574 11.5413 6.43452 11.5413H14.5886C15.2374 11.5413 15.8596 11.799 16.3184 12.2578C16.7771 12.7166 17.0348 13.3388 17.0348 13.9875C17.0348 14.6363 16.7771 15.2585 16.3184 15.7173C15.8596 16.176 15.2374 16.4338 14.5886 16.4338ZM17.0348 8.27967H14.5886C14.1048 8.27967 13.6318 8.1362 13.2296 7.86741C12.8273 7.59861 12.5137 7.21657 12.3286 6.76958C12.1434 6.32259 12.095 5.83073 12.1894 5.35621C12.2838 4.88169 12.5168 4.44581 12.8589 4.1037C13.201 3.76159 13.6369 3.52861 14.1114 3.43422C14.5859 3.33983 15.0778 3.38827 15.5247 3.57342C15.9717 3.75857 16.3538 4.07211 16.6226 4.47439C16.8914 4.87667 17.0348 5.34963 17.0348 5.83344V8.27967ZM18.6657 18.1597C18.6341 18.1274 18.6029 18.0961 18.5706 18.0646C18.6029 18.033 18.6341 18.0018 18.6657 17.9695C18.6972 18.0018 18.7285 18.033 18.7607 18.0646C18.7285 18.0961 18.6972 18.1274 18.6657 18.1597ZM22.7427 32.742C22.0942 32.7413 21.4724 32.4833 21.0137 32.0247C20.5551 31.5661 20.2972 30.9443 20.2965 30.2957V27.8495H22.7427C23.3915 27.8495 24.0137 28.1072 24.4725 28.566C24.9312 29.0248 25.1889 29.647 25.1889 30.2957C25.1889 30.9445 24.9312 31.5667 24.4725 32.0255C24.0137 32.4842 23.3915 32.742 22.7427 32.742ZM30.8968 24.5879H22.7427C22.0939 24.5879 21.4717 24.3301 21.013 23.8714C20.5542 23.4126 20.2965 22.7904 20.2965 22.1416C20.2965 21.4929 20.5542 20.8707 21.013 20.4119C21.4717 19.9531 22.0939 19.6954 22.7427 19.6954H30.8968C31.5456 19.6954 32.1678 19.9531 32.6266 20.4119C33.0853 20.8707 33.343 21.4929 33.343 22.1416C33.343 22.7904 33.0853 23.4126 32.6266 23.8714C32.1678 24.3301 31.5456 24.5879 30.8968 24.5879ZM30.8968 16.4338H28.4506V13.9875C28.4506 13.5037 28.5941 13.0308 28.8628 12.6285C29.1316 12.2262 29.5137 11.9127 29.9607 11.7275C30.4077 11.5424 30.8995 11.4939 31.374 11.5883C31.8486 11.6827 32.2844 11.9157 32.6266 12.2578C32.9687 12.5999 33.2016 13.0358 33.296 13.5103C33.3904 13.9848 33.342 14.4767 33.1568 14.9237C32.9717 15.3707 32.6581 15.7527 32.2559 16.0215C31.8536 16.2903 31.3806 16.4338 30.8968 16.4338Z"/>
</mask>
<path d="M36.6047 13.9875C36.6029 12.4743 36.0009 11.0235 34.9309 9.95349C33.8608 8.88345 32.4101 8.2815 30.8968 8.27967C30.0487 8.28423 29.2126 8.47992 28.4506 8.85221V5.83344C28.4523 4.69874 28.1153 3.58935 27.4827 2.64736C26.8501 1.70536 25.9506 0.973656 24.8996 0.545947C23.8486 0.118237 22.6939 0.0139982 21.5833 0.246581C20.4726 0.479163 19.4567 1.03798 18.6657 1.85146C17.7269 0.875165 16.4705 0.266023 15.1225 0.13367C13.7746 0.0013172 12.4237 0.354445 11.313 1.12949C10.2022 1.90454 9.40461 3.05061 9.06369 4.36141C8.72276 5.67222 8.86092 7.06167 9.45328 8.27967H6.43452C5.29981 8.27794 4.19042 8.61496 3.24843 9.24758C2.30644 9.8802 1.57473 10.7796 1.14702 11.8306C0.719311 12.8816 0.615072 14.0364 0.847655 15.147C1.08024 16.2576 1.63905 17.2735 2.45253 18.0646C1.47624 19.0034 0.867098 20.2598 0.734745 21.6077C0.602391 22.9557 0.955519 24.3066 1.73057 25.4173C2.50562 26.528 3.65168 27.3256 4.96249 27.6666C6.27329 28.0075 7.66274 27.8693 8.88075 27.277V30.2957C8.87901 31.4304 9.21604 32.5398 9.84865 33.4818C10.4813 34.4238 11.3807 35.1555 12.4317 35.5832C13.4827 36.0109 14.6375 36.1152 15.7481 35.8826C16.8587 35.65 17.8746 35.0912 18.6657 34.2777C19.6044 35.254 20.8609 35.8632 22.2088 35.9955C23.5567 36.1279 24.9076 35.7747 26.0184 34.9997C27.1291 34.2246 27.9267 33.0786 28.2676 31.7678C28.6086 30.457 28.4704 29.0675 27.878 27.8495H30.8968C32.0315 27.8512 33.1409 27.5142 34.0829 26.8816C35.0249 26.249 35.7566 25.3496 36.1843 24.2986C36.612 23.2476 36.7163 22.0928 36.4837 20.9822C36.2511 19.8716 35.6923 18.8557 34.8788 18.0646C35.4246 17.535 35.8585 16.9013 36.155 16.201C36.4514 15.5007 36.6044 14.748 36.6047 13.9875ZM20.2965 5.83344C20.2965 5.18466 20.5542 4.56246 21.013 4.1037C21.4717 3.64494 22.0939 3.38721 22.7427 3.38721C23.3915 3.38721 24.0137 3.64494 24.4725 4.1037C24.9312 4.56246 25.1889 5.18466 25.1889 5.83344V13.9875C25.1889 14.6363 24.9312 15.2585 24.4725 15.7173C24.0137 16.176 23.3915 16.4338 22.7427 16.4338C22.0939 16.4338 21.4717 16.176 21.013 15.7173C20.5542 15.2585 20.2965 14.6363 20.2965 13.9875V5.83344ZM8.88075 22.1416C8.88075 22.6255 8.73728 23.0984 8.46848 23.5007C8.19969 23.903 7.81764 24.2165 7.37065 24.4017C6.92366 24.5868 6.4318 24.6353 5.95728 24.5409C5.48276 24.4465 5.04688 24.2135 4.70477 23.8714C4.36266 23.5293 4.12968 23.0934 4.03529 22.6189C3.9409 22.1444 3.98935 21.6525 4.1745 21.2055C4.35965 20.7585 4.67318 20.3765 5.07547 20.1077C5.47775 19.8389 5.9507 19.6954 6.43452 19.6954H8.88075V22.1416ZM17.0348 30.2957C17.0348 30.9445 16.7771 31.5667 16.3184 32.0255C15.8596 32.4842 15.2374 32.742 14.5886 32.742C13.9398 32.742 13.3176 32.4842 12.8589 32.0255C12.4001 31.5667 12.1424 30.9445 12.1424 30.2957V22.1416C12.1424 21.4929 12.4001 20.8707 12.8589 20.4119C13.3176 19.9531 13.9398 19.6954 14.5886 19.6954C15.2374 19.6954 15.8596 19.9531 16.3184 20.4119C16.7771 20.8707 17.0348 21.4929 17.0348 22.1416V30.2957ZM14.5886 16.4338H6.43452C5.78574 16.4338 5.16353 16.176 4.70477 15.7173C4.24602 15.2585 3.98829 14.6363 3.98829 13.9875C3.98829 13.3388 4.24602 12.7166 4.70477 12.2578C5.16353 11.799 5.78574 11.5413 6.43452 11.5413H14.5886C15.2374 11.5413 15.8596 11.799 16.3184 12.2578C16.7771 12.7166 17.0348 13.3388 17.0348 13.9875C17.0348 14.6363 16.7771 15.2585 16.3184 15.7173C15.8596 16.176 15.2374 16.4338 14.5886 16.4338ZM17.0348 8.27967H14.5886C14.1048 8.27967 13.6318 8.1362 13.2296 7.86741C12.8273 7.59861 12.5137 7.21657 12.3286 6.76958C12.1434 6.32259 12.095 5.83073 12.1894 5.35621C12.2838 4.88169 12.5168 4.44581 12.8589 4.1037C13.201 3.76159 13.6369 3.52861 14.1114 3.43422C14.5859 3.33983 15.0778 3.38827 15.5247 3.57342C15.9717 3.75857 16.3538 4.07211 16.6226 4.47439C16.8914 4.87667 17.0348 5.34963 17.0348 5.83344V8.27967ZM18.6657 18.1597C18.6341 18.1274 18.6029 18.0961 18.5706 18.0646C18.6029 18.033 18.6341 18.0018 18.6657 17.9695C18.6972 18.0018 18.7285 18.033 18.7607 18.0646C18.7285 18.0961 18.6972 18.1274 18.6657 18.1597ZM22.7427 32.742C22.0942 32.7413 21.4724 32.4833 21.0137 32.0247C20.5551 31.5661 20.2972 30.9443 20.2965 30.2957V27.8495H22.7427C23.3915 27.8495 24.0137 28.1072 24.4725 28.566C24.9312 29.0248 25.1889 29.647 25.1889 30.2957C25.1889 30.9445 24.9312 31.5667 24.4725 32.0255C24.0137 32.4842 23.3915 32.742 22.7427 32.742ZM30.8968 24.5879H22.7427C22.0939 24.5879 21.4717 24.3301 21.013 23.8714C20.5542 23.4126 20.2965 22.7904 20.2965 22.1416C20.2965 21.4929 20.5542 20.8707 21.013 20.4119C21.4717 19.9531 22.0939 19.6954 22.7427 19.6954H30.8968C31.5456 19.6954 32.1678 19.9531 32.6266 20.4119C33.0853 20.8707 33.343 21.4929 33.343 22.1416C33.343 22.7904 33.0853 23.4126 32.6266 23.8714C32.1678 24.3301 31.5456 24.5879 30.8968 24.5879ZM30.8968 16.4338H28.4506V13.9875C28.4506 13.5037 28.5941 13.0308 28.8628 12.6285C29.1316 12.2262 29.5137 11.9127 29.9607 11.7275C30.4077 11.5424 30.8995 11.4939 31.374 11.5883C31.8486 11.6827 32.2844 11.9157 32.6266 12.2578C32.9687 12.5999 33.2016 13.0358 33.296 13.5103C33.3904 13.9848 33.342 14.4767 33.1568 14.9237C32.9717 15.3707 32.6581 15.7527 32.2559 16.0215C31.8536 16.2903 31.3806 16.4338 30.8968 16.4338Z" fill="white" stroke="#51515B" stroke-width="1.51508" mask="url(#path-1-inside-1_1811_2364)"/>
</svg>
