<svg width="17" height="14" viewBox="0 0 17 14" fill="none" xmlns="http://www.w3.org/2000/svg">
<path d="M0.956543 6.05762C0.437275 6.05762 0.0163255 6.47857 0.0163255 6.99783C0.0163256 7.5171 0.437275 7.93805 0.956543 7.93805L0.956543 6.05762ZM16.6649 7.66267C17.032 7.29549 17.032 6.70018 16.6649 6.333L10.6813 0.349491C10.3142 -0.0176867 9.71886 -0.0176867 9.35168 0.349491C8.9845 0.716669 8.9845 1.31198 9.35168 1.67916L14.6704 6.99783L9.35168 12.3165C8.9845 12.6837 8.9845 13.279 9.35168 13.6462C9.71886 14.0134 10.3142 14.0134 10.6813 13.6462L16.6649 7.66267ZM0.956543 7.93805L16 7.93805L16 6.05761L0.956543 6.05762L0.956543 7.93805Z" fill="white"/>
</svg>
