<svg width="32" height="32" viewBox="0 0 32 32" fill="none" xmlns="http://www.w3.org/2000/svg">
<path d="M26.0377 20.5282C25.1828 20.5345 24.3404 20.7343 23.5738 21.1128C22.8072 21.4912 22.1362 22.0383 21.6113 22.7131L11.1057 17.4603C11.2408 16.985 11.3131 16.494 11.3208 15.9999C11.3131 15.5058 11.2408 15.0149 11.1057 14.5396L21.6113 9.28673C22.1362 9.96155 22.8072 10.5087 23.5738 10.8871C24.3404 11.2655 25.1828 11.4654 26.0377 11.4716C27.1573 11.4716 28.2516 11.1397 29.1825 10.5177C30.1133 9.89572 30.8388 9.01169 31.2672 7.97739C31.6957 6.94309 31.8078 5.80498 31.5893 4.70697C31.3709 3.60897 30.8318 2.60039 30.0402 1.80877C29.2486 1.01715 28.24 0.478051 27.142 0.259644C26.044 0.0412371 24.9059 0.153331 23.8716 0.581752C22.8373 1.01017 21.9533 1.73568 21.3313 2.66652C20.7093 3.59737 20.3774 4.69174 20.3774 5.81126C20.385 6.30535 20.4573 6.79632 20.5925 7.27164L10.0868 12.5245C9.56188 11.8496 8.89093 11.3025 8.12431 10.9241C7.35768 10.5457 6.51529 10.3458 5.66038 10.3396C4.15915 10.3396 2.71941 10.9359 1.65789 11.9974C0.596359 13.059 0 14.4987 0 15.9999C0 17.5012 0.596359 18.9409 1.65789 20.0024C2.71941 21.064 4.15915 21.6603 5.66038 21.6603C6.51529 21.6541 7.35768 21.4542 8.12431 21.0758C8.89093 20.6974 9.56188 20.1502 10.0868 19.4754L20.5925 24.7282C20.2871 25.8717 20.3479 27.082 20.7662 28.1892C21.1845 29.2963 21.9392 30.2444 22.9244 30.9003C23.9095 31.5561 25.0755 31.8867 26.2582 31.8455C27.441 31.8043 28.5811 31.3934 29.5183 30.6706C30.4554 29.9478 31.1424 28.9494 31.4826 27.8159C31.8229 26.6824 31.7993 25.4707 31.4151 24.3513C31.031 23.2319 30.3056 22.261 29.341 21.5753C28.3765 20.8895 27.2212 20.5233 26.0377 20.5282ZM26.0377 2.41503C26.7094 2.41503 27.3661 2.61422 27.9246 2.9874C28.4831 3.36058 28.9184 3.891 29.1754 4.51158C29.4325 5.13216 29.4997 5.81503 29.3687 6.47383C29.2377 7.13263 28.9142 7.73778 28.4392 8.21275C27.9643 8.68773 27.3591 9.01118 26.7003 9.14223C26.0415 9.27327 25.3586 9.20602 24.7381 8.94896C24.1175 8.69191 23.5871 8.25661 23.2139 7.6981C22.8407 7.1396 22.6415 6.48297 22.6415 5.81126C22.6415 4.91052 22.9993 4.04668 23.6362 3.40976C24.2732 2.77285 25.137 2.41503 26.0377 2.41503ZM5.66038 19.3962C4.98867 19.3962 4.33204 19.197 3.77353 18.8238C3.21503 18.4506 2.77973 17.9202 2.52267 17.2996C2.26562 16.679 2.19836 15.9962 2.32941 15.3374C2.46045 14.6786 2.78391 14.0734 3.25888 13.5984C3.73385 13.1235 4.339 12.8 4.99781 12.669C5.65661 12.5379 6.33948 12.6052 6.96006 12.8622C7.58064 13.1193 8.11105 13.5546 8.48424 14.1131C8.85742 14.6716 9.0566 15.3282 9.0566 15.9999C9.0566 16.9007 8.69879 17.7645 8.06187 18.4014C7.42496 19.0384 6.56111 19.3962 5.66038 19.3962ZM26.0377 29.5848C25.366 29.5848 24.7094 29.3857 24.1509 29.0125C23.5924 28.6393 23.1571 28.1089 22.9 27.4883C22.643 26.8677 22.5757 26.1849 22.7068 25.526C22.8378 24.8672 23.1613 24.2621 23.6362 23.7871C24.1112 23.3122 24.7164 22.9887 25.3752 22.8576C26.034 22.7266 26.7168 22.7939 27.3374 23.0509C27.958 23.308 28.4884 23.7433 28.8616 24.3018C29.2348 24.8603 29.434 25.5169 29.434 26.1886C29.434 27.0894 29.0761 27.9532 28.4392 28.5901C27.8023 29.227 26.9385 29.5848 26.0377 29.5848Z" fill="white"/>
</svg>
